<?xml version="1.0" encoding="UTF-8"?>
<svg id="Livello_1" data-name="Livello 1" xmlns="http://www.w3.org/2000/svg" viewBox="0 0 114.74 126.98">
  <defs>
    <style>
      .cls-1 {
        fill: #1baeb0;
      }

      .cls-2 {
        fill: #fb8409;
      }
    </style>
  </defs>
  <path class="cls-2" d="M68.61,81.62c1.27-.45,2.62-.13,3.93-.27,10.54-1.15,21.11-7.46,26.89-16.31,15.17-23.23-.35-53.22-27.33-55.67l-61.94.02c-.25.05-.83-.17-.83-.37V.38c0-.2.58-.42.83-.37h60.74c28.26,1.78,49.32,27.84,42.57,56.04-4.84,20.25-23.64,35.19-44.59,34.73l-.39,36.21h-35.04c-.07,0-1.02-.59-1.2-.72-2.25-1.67-2.79-5.73-2.72-8.36.17-.04.47-.28.56-.28h29.04l.36-26.88c1.18,0,8.53.15,8.9-.1.25-.17.21-.47.24-.72.28-2.35-.02-5.8-.01-8.29Z"/>
  <path class="cls-1" d="M59.49,90.74c-7.51.03-15.04.08-22.56-.12-12.22-10.61-24.81-20.78-36.94-31.48L28.64,24.97l.68-.2,39.17,32.86c.2,7.99.16,16,.12,24-.01,2.5.29,5.94.01,8.29-.03.26,0,.55-.24.72-.37.26-7.71.1-8.9.1ZM60.45,82.58v-20.76c0-.21-.73-1-.95-1.21l-29.41-24.58-18.37,21.46c-.65.76.37,1.28.86,1.8l27.59,23.29h20.28Z"/>
</svg>